<svg id="mermaid-graph-1762196077286" width="100%" xmlns="http://www.w3.org/2000/svg" style="max-width: 2828px;" viewBox="-50 -10 2828 2855" role="graphics-document document" aria-roledescription="sequence"><g><rect x="2368" y="0" fill="transparent" stroke="rgb(0,0,0, 0.5)" width="360" height="2834" class="rect"></rect><text x="2548" y="11" dominant-baseline="central" alignment-baseline="central" class="text" style="text-anchor: middle; font-size: 16px; font-weight: 400;"><tspan x="2548" dy="0">"External Libraries"</tspan></text></g><g><rect x="2040" y="0" fill="transparent" stroke="rgb(0,0,0, 0.5)" width="268" height="2834" class="rect"></rect><text x="2174" y="11" dominant-baseline="central" alignment-baseline="central" class="text" style="text-anchor: middle; font-size: 16px; font-weight: 400;"><tspan x="2174" dy="0">"Native GPU Layer"</tspan></text></g><g><rect x="891.5" y="0" fill="transparent" stroke="rgb(0,0,0, 0.5)" width="883.5" height="2834" class="rect"></rect><text x="1333.25" y="11" dominant-baseline="central" alignment-baseline="central" class="text" style="text-anchor: middle; font-size: 16px; font-weight: 400;"><tspan x="1333.25" dy="0">"Python Core Logic (sqse_aead_pkg)"</tspan></text></g><g><rect x="395" y="0" fill="transparent" stroke="rgb(0,0,0, 0.5)" width="172" height="2834" class="rect"></rect><text x="481" y="11" dominant-baseline="central" alignment-baseline="central" class="text" style="text-anchor: middle; font-size: 16px; font-weight: 400;"><tspan x="481" dy="0">"Application Layer"</tspan></text></g><g><rect x="2573" y="2759" fill="#eaeaea" stroke="#666" width="150" height="65" name="Filesystem" rx="3" ry="3" class="actor actor-bottom"></rect><text x="2648" y="2791.5" dominant-baseline="central" alignment-baseline="central" class="actor" style="text-anchor: middle; font-size: 16px; font-weight: 400;"><tspan x="2648" dy="0">"Filesystem I/O"</tspan></text></g><g><rect x="2373" y="2759" fill="#eaeaea" stroke="#666" width="150" height="65" name="External_Crypto_Libs" rx="3" ry="3" class="actor actor-bottom"></rect><text x="2448" y="2791.5" dominant-baseline="central" alignment-baseline="central" class="actor" style="text-anchor: middle; font-size: 16px; font-weight: 400;"><tspan x="2448" dy="0">"Blake3 / Argon2"</tspan></text></g><g><rect x="2045" y="2759" fill="#eaeaea" stroke="#666" width="258" height="65" name="CC_OpenCL_DLL" rx="3" ry="3" class="actor actor-bottom"></rect><text x="2174" y="2791.5" dominant-baseline="central" alignment-baseline="central" class="actor" style="text-anchor: middle; font-size: 16px; font-weight: 400;"><tspan x="2174" dy="0">"CC_OpenCL.dll (GPU Keystream)"</tspan></text></g><g><rect x="1538" y="2759" fill="#eaeaea" stroke="#666" width="232" height="65" name="SQSE_DLL_Wrapper" rx="3" ry="3" class="actor actor-bottom"></rect><text x="1654" y="2791.5" dominant-baseline="central" alignment-baseline="central" class="actor" style="text-anchor: middle; font-size: 16px; font-weight: 400;"><tspan x="1654" dy="0">"SQSE DLL Wrapper (core.py)"</tspan></text></g><g><rect x="1288" y="2759" fill="#eaeaea" stroke="#666" width="200" height="65" name="Key_Derivation" rx="3" ry="3" class="actor actor-bottom"></rect><text x="1388" y="2791.5" dominant-baseline="central" alignment-baseline="central" class="actor" style="text-anchor: middle; font-size: 16px; font-weight: 400;"><tspan x="1388" dy="0">"Key Derivation (core.py)"</tspan></text></g><g><rect x="896.5" y="2759" fill="#eaeaea" stroke="#666" width="217" height="65" name="Core_AEAD_Logic" rx="3" ry="3" class="actor actor-bottom"></rect><text x="1005" y="2791.5" dominant-baseline="central" alignment-baseline="central" class="actor" style="text-anchor: middle; font-size: 16px; font-weight: 400;"><tspan x="1005" dy="0">"Core AEAD Logic (core.py)"</tspan></text></g><g><rect x="400" y="2759" fill="#eaeaea" stroke="#666" width="162" height="65" name="CLI_GUI" rx="3" ry="3" class="actor actor-bottom"></rect><text x="481" y="2791.5" dominant-baseline="central" alignment-baseline="central" class="actor" style="text-anchor: middle; font-size: 16px; font-weight: 400;"><tspan x="481" dy="0">"CLI / Streamlit GUI"</tspan></text></g><g><line id="actor14" x1="2648" y1="37" x2="2648" y2="2759" class="200" stroke-width="0.5px" stroke="#999"></line><g id="root-14"><rect x="2573" y="32" fill="#eaeaea" stroke="#666" width="150" height="65" name="Filesystem" rx="3" ry="3" class="actor actor-top"></rect><text x="2648" y="64.5" dominant-baseline="central" alignment-baseline="central" class="actor" style="text-anchor: middle; font-size: 16px; font-weight: 400;"><tspan x="2648" dy="0">"Filesystem I/O"</tspan></text></g></g><g><line id="actor13" x1="2448" y1="37" x2="2448" y2="2759" class="200" stroke-width="0.5px" stroke="#999"></line><g id="root-13"><rect x="2373" y="32" fill="#eaeaea" stroke="#666" width="150" height="65" name="External_Crypto_Libs" rx="3" ry="3" class="actor actor-top"></rect><text x="2448" y="64.5" dominant-baseline="central" alignment-baseline="central" class="actor" style="text-anchor: middle; font-size: 16px; font-weight: 400;"><tspan x="2448" dy="0">"Blake3 / Argon2"</tspan></text></g></g><g><line id="actor12" x1="2174" y1="37" x2="2174" y2="2759" class="200" stroke-width="0.5px" stroke="#999"></line><g id="root-12"><rect x="2045" y="32" fill="#eaeaea" stroke="#666" width="258" height="65" name="CC_OpenCL_DLL" rx="3" ry="3" class="actor actor-top"></rect><text x="2174" y="64.5" dominant-baseline="central" alignment-baseline="central" class="actor" style="text-anchor: middle; font-size: 16px; font-weight: 400;"><tspan x="2174" dy="0">"CC_OpenCL.dll (GPU Keystream)"</tspan></text></g></g><g><line id="actor11" x1="1654" y1="37" x2="1654" y2="2759" class="200" stroke-width="0.5px" stroke="#999"></line><g id="root-11"><rect x="1538" y="32" fill="#eaeaea" stroke="#666" width="232" height="65" name="SQSE_DLL_Wrapper" rx="3" ry="3" class="actor actor-top"></rect><text x="1654" y="64.5" dominant-baseline="central" alignment-baseline="central" class="actor" style="text-anchor: middle; font-size: 16px; font-weight: 400;"><tspan x="1654" dy="0">"SQSE DLL Wrapper (core.py)"</tspan></text></g></g><g><line id="actor10" x1="1388" y1="37" x2="1388" y2="2759" class="200" stroke-width="0.5px" stroke="#999"></line><g id="root-10"><rect x="1288" y="32" fill="#eaeaea" stroke="#666" width="200" height="65" name="Key_Derivation" rx="3" ry="3" class="actor actor-top"></rect><text x="1388" y="64.5" dominant-baseline="central" alignment-baseline="central" class="actor" style="text-anchor: middle; font-size: 16px; font-weight: 400;"><tspan x="1388" dy="0">"Key Derivation (core.py)"</tspan></text></g></g><g><line id="actor9" x1="1005" y1="37" x2="1005" y2="2759" class="200" stroke-width="0.5px" stroke="#999"></line><g id="root-9"><rect x="896.5" y="32" fill="#eaeaea" stroke="#666" width="217" height="65" name="Core_AEAD_Logic" rx="3" ry="3" class="actor actor-top"></rect><text x="1005" y="64.5" dominant-baseline="central" alignment-baseline="central" class="actor" style="text-anchor: middle; font-size: 16px; font-weight: 400;"><tspan x="1005" dy="0">"Core AEAD Logic (core.py)"</tspan></text></g></g><g><line id="actor8" x1="481" y1="37" x2="481" y2="2759" class="200" stroke-width="0.5px" stroke="#999"></line><g id="root-8"><rect x="400" y="32" fill="#eaeaea" stroke="#666" width="162" height="65" name="CLI_GUI" rx="3" ry="3" class="actor actor-top"></rect><text x="481" y="64.5" dominant-baseline="central" alignment-baseline="central" class="actor" style="text-anchor: middle; font-size: 16px; font-weight: 400;"><tspan x="481" dy="0">"CLI / Streamlit GUI"</tspan></text></g></g><style>#mermaid-graph-1762196077286{font-family:-apple-system,BlinkMacSystemFont,"Segoe UI",Roboto,Helvetica,Arial,sans-serif;font-size:14px;fill:#f1f5f9;}#mermaid-graph-1762196077286 .error-icon{fill:#1e293b;}#mermaid-graph-1762196077286 .error-text{fill:#e1d6c4;stroke:#e1d6c4;}#mermaid-graph-1762196077286 .edge-thickness-normal{stroke-width:2px;}#mermaid-graph-1762196077286 .edge-thickness-thick{stroke-width:3.5px;}#mermaid-graph-1762196077286 .edge-pattern-solid{stroke-dasharray:0;}#mermaid-graph-1762196077286 .edge-pattern-dashed{stroke-dasharray:3;}#mermaid-graph-1762196077286 .edge-pattern-dotted{stroke-dasharray:2;}#mermaid-graph-1762196077286 .marker{fill:#94a3b8;stroke:#94a3b8;}#mermaid-graph-1762196077286 .marker.cross{stroke:#94a3b8;}#mermaid-graph-1762196077286 svg{font-family:-apple-system,BlinkMacSystemFont,"Segoe UI",Roboto,Helvetica,Arial,sans-serif;font-size:14px;}#mermaid-graph-1762196077286 .actor{stroke:#14b8a6;fill:#334155;}#mermaid-graph-1762196077286 text.actor>tspan{fill:#f1f5f9;stroke:none;}#mermaid-graph-1762196077286 .actor-line{stroke:grey;}#mermaid-graph-1762196077286 .messageLine0{stroke-width:1.5;stroke-dasharray:none;stroke:#f1f5f9;}#mermaid-graph-1762196077286 .messageLine1{stroke-width:1.5;stroke-dasharray:2,2;stroke:#f1f5f9;}#mermaid-graph-1762196077286 #arrowhead path{fill:#f1f5f9;stroke:#f1f5f9;}#mermaid-graph-1762196077286 .sequenceNumber{fill:#f1f5f9;}#mermaid-graph-1762196077286 #sequencenumber{fill:#f1f5f9;}#mermaid-graph-1762196077286 #crosshead path{fill:#f1f5f9;stroke:#f1f5f9;}#mermaid-graph-1762196077286 .messageText{fill:#f1f5f9;stroke:none;}#mermaid-graph-1762196077286 .labelBox{stroke:#14b8a6;fill:#334155;}#mermaid-graph-1762196077286 .labelText,#mermaid-graph-1762196077286 .labelText>tspan{fill:#f1f5f9;stroke:none;}#mermaid-graph-1762196077286 .loopText,#mermaid-graph-1762196077286 .loopText>tspan{fill:#f1f5f9;stroke:none;}#mermaid-graph-1762196077286 .loopLine{stroke-width:2px;stroke-dasharray:2,2;stroke:#14b8a6;fill:#14b8a6;}#mermaid-graph-1762196077286 .note{stroke:hsl(52.6829268293, 60%, 93.9215686275%);fill:#fff5ad;}#mermaid-graph-1762196077286 .noteText,#mermaid-graph-1762196077286 .noteText>tspan{fill:#333;stroke:none;}#mermaid-graph-1762196077286 .activation0{fill:#334155;stroke:hsl(215.2941176471, 25%, 16.6666666667%);}#mermaid-graph-1762196077286 .activation1{fill:#334155;stroke:hsl(215.2941176471, 25%, 16.6666666667%);}#mermaid-graph-1762196077286 .activation2{fill:#334155;stroke:hsl(215.2941176471, 25%, 16.6666666667%);}#mermaid-graph-1762196077286 .actorPopupMenu{position:absolute;}#mermaid-graph-1762196077286 .actorPopupMenuPanel{position:absolute;fill:#334155;box-shadow:0px 8px 16px 0px rgba(0,0,0,0.2);filter:drop-shadow(3px 5px 2px rgb(0 0 0 / 0.4));}#mermaid-graph-1762196077286 .actor-man line{stroke:#14b8a6;fill:#334155;}#mermaid-graph-1762196077286 .actor-man circle,#mermaid-graph-1762196077286 line{stroke:#14b8a6;fill:#334155;stroke-width:2px;}#mermaid-graph-1762196077286 :root{--mermaid-font-family:"trebuchet ms",verdana,arial,sans-serif;}</style><g></g><defs><symbol id="computer" width="24" height="24"><path transform="scale(.5)" d="M2 2v13h20v-13h-20zm18 11h-16v-9h16v9zm-10.228 6l.466-1h3.524l.467 1h-4.457zm14.228 3h-24l2-6h2.104l-1.33 4h18.45l-1.297-4h2.073l2 6zm-5-10h-14v-7h14v7z"></path></symbol></defs><defs><symbol id="database" fill-rule="evenodd" clip-rule="evenodd"><path transform="scale(.5)" d="M12.258.001l.256.004.255.005.253.008.251.01.249.012.247.015.246.016.242.019.241.02.239.023.236.024.233.027.231.028.229.031.225.032.223.034.22.036.217.038.214.04.211.041.208.043.205.045.201.046.198.048.194.05.191.051.187.053.183.054.18.056.175.057.172.059.168.06.163.061.16.063.155.064.15.066.074.033.073.033.071.034.07.034.069.035.068.035.067.035.066.035.064.036.064.036.062.036.06.036.06.037.058.037.058.037.055.038.055.038.053.038.052.038.051.039.05.039.048.039.047.039.045.04.044.04.043.04.041.04.04.041.039.041.037.041.036.041.034.041.033.042.032.042.03.042.029.042.027.042.026.043.024.043.023.043.021.043.02.043.018.044.017.043.015.044.013.044.012.044.011.045.009.044.007.045.006.045.004.045.002.045.001.045v17l-.001.045-.002.045-.004.045-.006.045-.007.045-.009.044-.011.045-.012.044-.013.044-.015.044-.017.043-.018.044-.02.043-.021.043-.023.043-.024.043-.026.043-.027.042-.029.042-.03.042-.032.042-.033.042-.034.041-.036.041-.037.041-.039.041-.04.041-.041.04-.043.04-.044.04-.045.04-.047.039-.048.039-.05.039-.051.039-.052.038-.053.038-.055.038-.055.038-.058.037-.058.037-.06.037-.06.036-.062.036-.064.036-.064.036-.066.035-.067.035-.068.035-.069.035-.07.034-.071.034-.073.033-.074.033-.15.066-.155.064-.16.063-.163.061-.168.06-.172.059-.175.057-.18.056-.183.054-.187.053-.191.051-.194.05-.198.048-.201.046-.205.045-.208.043-.211.041-.214.04-.217.038-.22.036-.223.034-.225.032-.229.031-.231.028-.233.027-.236.024-.239.023-.241.02-.242.019-.246.016-.247.015-.249.012-.251.01-.253.008-.255.005-.256.004-.258.001-.258-.001-.256-.004-.255-.005-.253-.008-.251-.01-.249-.012-.247-.015-.245-.016-.243-.019-.241-.02-.238-.023-.236-.024-.234-.027-.231-.028-.228-.031-.226-.032-.223-.034-.22-.036-.217-.038-.214-.04-.211-.041-.208-.043-.204-.045-.201-.046-.198-.048-.195-.05-.19-.051-.187-.053-.184-.054-.179-.056-.176-.057-.172-.059-.167-.06-.164-.061-.159-.063-.155-.064-.151-.066-.074-.033-.072-.033-.072-.034-.07-.034-.069-.035-.068-.035-.067-.035-.066-.035-.064-.036-.063-.036-.062-.036-.061-.036-.06-.037-.058-.037-.057-.037-.056-.038-.055-.038-.053-.038-.052-.038-.051-.039-.049-.039-.049-.039-.046-.039-.046-.04-.044-.04-.043-.04-.041-.04-.04-.041-.039-.041-.037-.041-.036-.041-.034-.041-.033-.042-.032-.042-.03-.042-.029-.042-.027-.042-.026-.043-.024-.043-.023-.043-.021-.043-.02-.043-.018-.044-.017-.043-.015-.044-.013-.044-.012-.044-.011-.045-.009-.044-.007-.045-.006-.045-.004-.045-.002-.045-.001-.045v-17l.001-.045.002-.045.004-.045.006-.045.007-.045.009-.044.011-.045.012-.044.013-.044.015-.044.017-.043.018-.044.02-.043.021-.043.023-.043.024-.043.026-.043.027-.042.029-.042.03-.042.032-.042.033-.042.034-.041.036-.041.037-.041.039-.041.04-.041.041-.04.043-.04.044-.04.046-.04.046-.039.049-.039.049-.039.051-.039.052-.038.053-.038.055-.038.056-.038.057-.037.058-.037.06-.037.061-.036.062-.036.063-.036.064-.036.066-.035.067-.035.068-.035.069-.035.07-.034.072-.034.072-.033.074-.033.151-.066.155-.064.159-.063.164-.061.167-.06.172-.059.176-.057.179-.056.184-.054.187-.053.19-.051.195-.05.198-.048.201-.046.204-.045.208-.043.211-.041.214-.04.217-.038.22-.036.223-.034.226-.032.228-.031.231-.028.234-.027.236-.024.238-.023.241-.02.243-.019.245-.016.247-.015.249-.012.251-.01.253-.008.255-.005.256-.004.258-.001.258.001zm-9.258 20.499v.01l.001.021.003.021.004.022.005.021.006.022.007.022.009.023.01.022.011.023.012.023.013.023.015.023.016.024.017.023.018.024.019.024.021.024.022.025.023.024.024.025.052.049.056.05.061.051.066.051.07.051.075.051.079.052.084.052.088.052.092.052.097.052.102.051.105.052.11.052.114.051.119.051.123.051.127.05.131.05.135.05.139.048.144.049.147.047.152.047.155.047.16.045.163.045.167.043.171.043.176.041.178.041.183.039.187.039.19.037.194.035.197.035.202.033.204.031.209.03.212.029.216.027.219.025.222.024.226.021.23.02.233.018.236.016.24.015.243.012.246.01.249.008.253.005.256.004.259.001.26-.001.257-.004.254-.005.25-.008.247-.011.244-.012.241-.014.237-.016.233-.018.231-.021.226-.021.224-.024.22-.026.216-.027.212-.028.21-.031.205-.031.202-.034.198-.034.194-.036.191-.037.187-.039.183-.04.179-.04.175-.042.172-.043.168-.044.163-.045.16-.046.155-.046.152-.047.148-.048.143-.049.139-.049.136-.05.131-.05.126-.05.123-.051.118-.052.114-.051.11-.052.106-.052.101-.052.096-.052.092-.052.088-.053.083-.051.079-.052.074-.052.07-.051.065-.051.06-.051.056-.05.051-.05.023-.024.023-.025.021-.024.02-.024.019-.024.018-.024.017-.024.015-.023.014-.024.013-.023.012-.023.01-.023.01-.022.008-.022.006-.022.006-.022.004-.022.004-.021.001-.021.001-.021v-4.127l-.077.055-.08.053-.083.054-.085.053-.087.052-.09.052-.093.051-.095.05-.097.05-.1.049-.102.049-.105.048-.106.047-.109.047-.111.046-.114.045-.115.045-.118.044-.12.043-.122.042-.124.042-.126.041-.128.04-.13.04-.132.038-.134.038-.135.037-.138.037-.139.035-.142.035-.143.034-.144.033-.147.032-.148.031-.15.03-.151.03-.153.029-.154.027-.156.027-.158.026-.159.025-.161.024-.162.023-.163.022-.165.021-.166.02-.167.019-.169.018-.169.017-.171.016-.173.015-.173.014-.175.013-.175.012-.177.011-.178.01-.179.008-.179.008-.181.006-.182.005-.182.004-.184.003-.184.002h-.37l-.184-.002-.184-.003-.182-.004-.182-.005-.181-.006-.179-.008-.179-.008-.178-.01-.176-.011-.176-.012-.175-.013-.173-.014-.172-.015-.171-.016-.17-.017-.169-.018-.167-.019-.166-.02-.165-.021-.163-.022-.162-.023-.161-.024-.159-.025-.157-.026-.156-.027-.155-.027-.153-.029-.151-.03-.15-.03-.148-.031-.146-.032-.145-.033-.143-.034-.141-.035-.14-.035-.137-.037-.136-.037-.134-.038-.132-.038-.13-.04-.128-.04-.126-.041-.124-.042-.122-.042-.12-.044-.117-.043-.116-.045-.113-.045-.112-.046-.109-.047-.106-.047-.105-.048-.102-.049-.1-.049-.097-.05-.095-.05-.093-.052-.09-.051-.087-.052-.085-.053-.083-.054-.08-.054-.077-.054v4.127zm0-5.654v.011l.001.021.003.021.004.021.005.022.006.022.007.022.009.022.01.022.011.023.012.023.013.023.015.024.016.023.017.024.018.024.019.024.021.024.022.024.023.025.024.024.052.05.056.05.061.05.066.051.07.051.075.052.079.051.084.052.088.052.092.052.097.052.102.052.105.052.11.051.114.051.119.052.123.05.127.051.131.05.135.049.139.049.144.048.147.048.152.047.155.046.16.045.163.045.167.044.171.042.176.042.178.04.183.04.187.038.19.037.194.036.197.034.202.033.204.032.209.03.212.028.216.027.219.025.222.024.226.022.23.02.233.018.236.016.24.014.243.012.246.01.249.008.253.006.256.003.259.001.26-.001.257-.003.254-.006.25-.008.247-.01.244-.012.241-.015.237-.016.233-.018.231-.02.226-.022.224-.024.22-.025.216-.027.212-.029.21-.03.205-.032.202-.033.198-.035.194-.036.191-.037.187-.039.183-.039.179-.041.175-.042.172-.043.168-.044.163-.045.16-.045.155-.047.152-.047.148-.048.143-.048.139-.05.136-.049.131-.05.126-.051.123-.051.118-.051.114-.052.11-.052.106-.052.101-.052.096-.052.092-.052.088-.052.083-.052.079-.052.074-.051.07-.052.065-.051.06-.05.056-.051.051-.049.023-.025.023-.024.021-.025.02-.024.019-.024.018-.024.017-.024.015-.023.014-.023.013-.024.012-.022.01-.023.01-.023.008-.022.006-.022.006-.022.004-.021.004-.022.001-.021.001-.021v-4.139l-.077.054-.08.054-.083.054-.085.052-.087.053-.09.051-.093.051-.095.051-.097.05-.1.049-.102.049-.105.048-.106.047-.109.047-.111.046-.114.045-.115.044-.118.044-.12.044-.122.042-.124.042-.126.041-.128.04-.13.039-.132.039-.134.038-.135.037-.138.036-.139.036-.142.035-.143.033-.144.033-.147.033-.148.031-.15.03-.151.03-.153.028-.154.028-.156.027-.158.026-.159.025-.161.024-.162.023-.163.022-.165.021-.166.02-.167.019-.169.018-.169.017-.171.016-.173.015-.173.014-.175.013-.175.012-.177.011-.178.009-.179.009-.179.007-.181.007-.182.005-.182.004-.184.003-.184.002h-.37l-.184-.002-.184-.003-.182-.004-.182-.005-.181-.007-.179-.007-.179-.009-.178-.009-.176-.011-.176-.012-.175-.013-.173-.014-.172-.015-.171-.016-.17-.017-.169-.018-.167-.019-.166-.02-.165-.021-.163-.022-.162-.023-.161-.024-.159-.025-.157-.026-.156-.027-.155-.028-.153-.028-.151-.03-.15-.03-.148-.031-.146-.033-.145-.033-.143-.033-.141-.035-.14-.036-.137-.036-.136-.037-.134-.038-.132-.039-.13-.039-.128-.04-.126-.041-.124-.042-.122-.043-.12-.043-.117-.044-.116-.044-.113-.046-.112-.046-.109-.046-.106-.047-.105-.048-.102-.049-.1-.049-.097-.05-.095-.051-.093-.051-.09-.051-.087-.053-.085-.052-.083-.054-.08-.054-.077-.054v4.139zm0-5.666v.011l.001.02.003.022.004.021.005.022.006.021.007.022.009.023.01.022.011.023.012.023.013.023.015.023.016.024.017.024.018.023.019.024.021.025.022.024.023.024.024.025.052.05.056.05.061.05.066.051.07.051.075.052.079.051.084.052.088.052.092.052.097.052.102.052.105.051.11.052.114.051.119.051.123.051.127.05.131.05.135.05.139.049.144.048.147.048.152.047.155.046.16.045.163.045.167.043.171.043.176.042.178.04.183.04.187.038.19.037.194.036.197.034.202.033.204.032.209.03.212.028.216.027.219.025.222.024.226.021.23.02.233.018.236.017.24.014.243.012.246.01.249.008.253.006.256.003.259.001.26-.001.257-.003.254-.006.25-.008.247-.01.244-.013.241-.014.237-.016.233-.018.231-.02.226-.022.224-.024.22-.025.216-.027.212-.029.21-.03.205-.032.202-.033.198-.035.194-.036.191-.037.187-.039.183-.039.179-.041.175-.042.172-.043.168-.044.163-.045.16-.045.155-.047.152-.047.148-.048.143-.049.139-.049.136-.049.131-.051.126-.05.123-.051.118-.052.114-.051.11-.052.106-.052.101-.052.096-.052.092-.052.088-.052.083-.052.079-.052.074-.052.07-.051.065-.051.06-.051.056-.05.051-.049.023-.025.023-.025.021-.024.02-.024.019-.024.018-.024.017-.024.015-.023.014-.024.013-.023.012-.023.01-.022.01-.023.008-.022.006-.022.006-.022.004-.022.004-.021.001-.021.001-.021v-4.153l-.077.054-.08.054-.083.053-.085.053-.087.053-.09.051-.093.051-.095.051-.097.05-.1.049-.102.048-.105.048-.106.048-.109.046-.111.046-.114.046-.115.044-.118.044-.12.043-.122.043-.124.042-.126.041-.128.04-.13.039-.132.039-.134.038-.135.037-.138.036-.139.036-.142.034-.143.034-.144.033-.147.032-.148.032-.15.03-.151.03-.153.028-.154.028-.156.027-.158.026-.159.024-.161.024-.162.023-.163.023-.165.021-.166.02-.167.019-.169.018-.169.017-.171.016-.173.015-.173.014-.175.013-.175.012-.177.01-.178.01-.179.009-.179.007-.181.006-.182.006-.182.004-.184.003-.184.001-.185.001-.185-.001-.184-.001-.184-.003-.182-.004-.182-.006-.181-.006-.179-.007-.179-.009-.178-.01-.176-.01-.176-.012-.175-.013-.173-.014-.172-.015-.171-.016-.17-.017-.169-.018-.167-.019-.166-.02-.165-.021-.163-.023-.162-.023-.161-.024-.159-.024-.157-.026-.156-.027-.155-.028-.153-.028-.151-.03-.15-.03-.148-.032-.146-.032-.145-.033-.143-.034-.141-.034-.14-.036-.137-.036-.136-.037-.134-.038-.132-.039-.13-.039-.128-.041-.126-.041-.124-.041-.122-.043-.12-.043-.117-.044-.116-.044-.113-.046-.112-.046-.109-.046-.106-.048-.105-.048-.102-.048-.1-.05-.097-.049-.095-.051-.093-.051-.09-.052-.087-.052-.085-.053-.083-.053-.08-.054-.077-.054v4.153zm8.74-8.179l-.257.004-.254.005-.25.008-.247.011-.244.012-.241.014-.237.016-.233.018-.231.021-.226.022-.224.023-.22.026-.216.027-.212.028-.21.031-.205.032-.202.033-.198.034-.194.036-.191.038-.187.038-.183.04-.179.041-.175.042-.172.043-.168.043-.163.045-.16.046-.155.046-.152.048-.148.048-.143.048-.139.049-.136.05-.131.05-.126.051-.123.051-.118.051-.114.052-.11.052-.106.052-.101.052-.096.052-.092.052-.088.052-.083.052-.079.052-.074.051-.07.052-.065.051-.06.05-.056.05-.051.05-.023.025-.023.024-.021.024-.02.025-.019.024-.018.024-.017.023-.015.024-.014.023-.013.023-.012.023-.01.023-.01.022-.008.022-.006.023-.006.021-.004.022-.004.021-.001.021-.001.021.001.021.001.021.004.021.004.022.006.021.006.023.008.022.01.022.01.023.012.023.013.023.014.023.015.024.017.023.018.024.019.024.02.025.021.024.023.024.023.025.051.05.056.05.06.05.065.051.07.052.074.051.079.052.083.052.088.052.092.052.096.052.101.052.106.052.11.052.114.052.118.051.123.051.126.051.131.05.136.05.139.049.143.048.148.048.152.048.155.046.16.046.163.045.168.043.172.043.175.042.179.041.183.04.187.038.191.038.194.036.198.034.202.033.205.032.21.031.212.028.216.027.22.026.224.023.226.022.231.021.233.018.237.016.241.014.244.012.247.011.25.008.254.005.257.004.26.001.26-.001.257-.004.254-.005.25-.008.247-.011.244-.012.241-.014.237-.016.233-.018.231-.021.226-.022.224-.023.22-.026.216-.027.212-.028.21-.031.205-.032.202-.033.198-.034.194-.036.191-.038.187-.038.183-.04.179-.041.175-.042.172-.043.168-.043.163-.045.16-.046.155-.046.152-.048.148-.048.143-.048.139-.049.136-.05.131-.05.126-.051.123-.051.118-.051.114-.052.11-.052.106-.052.101-.052.096-.052.092-.052.088-.052.083-.052.079-.052.074-.051.07-.052.065-.051.06-.05.056-.05.051-.05.023-.025.023-.024.021-.024.02-.025.019-.024.018-.024.017-.023.015-.024.014-.023.013-.023.012-.023.01-.023.01-.022.008-.022.006-.023.006-.021.004-.022.004-.021.001-.021.001-.021-.001-.021-.001-.021-.004-.021-.004-.022-.006-.021-.006-.023-.008-.022-.01-.022-.01-.023-.012-.023-.013-.023-.014-.023-.015-.024-.017-.023-.018-.024-.019-.024-.02-.025-.021-.024-.023-.024-.023-.025-.051-.05-.056-.05-.06-.05-.065-.051-.07-.052-.074-.051-.079-.052-.083-.052-.088-.052-.092-.052-.096-.052-.101-.052-.106-.052-.11-.052-.114-.052-.118-.051-.123-.051-.126-.051-.131-.05-.136-.05-.139-.049-.143-.048-.148-.048-.152-.048-.155-.046-.16-.046-.163-.045-.168-.043-.172-.043-.175-.042-.179-.041-.183-.04-.187-.038-.191-.038-.194-.036-.198-.034-.202-.033-.205-.032-.21-.031-.212-.028-.216-.027-.22-.026-.224-.023-.226-.022-.231-.021-.233-.018-.237-.016-.241-.014-.244-.012-.247-.011-.25-.008-.254-.005-.257-.004-.26-.001-.26.001z"></path></symbol></defs><defs><symbol id="clock" width="24" height="24"><path transform="scale(.5)" d="M12 2c5.514 0 10 4.486 10 10s-4.486 10-10 10-10-4.486-10-10 4.486-10 10-10zm0-2c-6.627 0-12 5.373-12 12s5.373 12 12 12 12-5.373 12-12-5.373-12-12-12zm5.848 12.459c.202.038.202.333.001.372-1.907.361-6.045 1.111-6.547 1.111-.719 0-1.301-.582-1.301-1.301 0-.512.77-5.447 1.125-7.445.034-.192.312-.181.343.014l.985 6.238 5.394 1.011z"></path></symbol></defs><defs><marker id="arrowhead" refX="7.9" refY="5" markerUnits="userSpaceOnUse" markerWidth="12" markerHeight="12" orient="auto"><path d="M 0 0 L 10 5 L 0 10 z"></path></marker></defs><defs><marker id="crosshead" markerWidth="15" markerHeight="8" orient="auto" refX="4" refY="4.5"><path fill="none" stroke="#000000" stroke-width="1pt" d="M 1,2 L 6,7 M 6,2 L 1,7" style="stroke-dasharray: 0, 0;"></path></marker></defs><defs><marker id="filled-head" refX="15.5" refY="7" markerWidth="20" markerHeight="28" orient="auto"><path d="M 18,7 L9,13 L14,7 L9,1 Z"></path></marker></defs><defs><marker id="sequencenumber" refX="15" refY="15" markerWidth="60" markerHeight="40" orient="auto"><circle cx="15" cy="15" r="6"></circle></marker></defs><g><rect x="1000" y="205" fill="#EDF2AE" stroke="#666" width="10" height="2480" rx="0" ry="0" class="activation0"></rect></g><g><rect x="1383" y="399" fill="#EDF2AE" stroke="#666" width="10" height="527" rx="0" ry="0" class="activation0"></rect></g><g><line x1="1373" y1="407" x2="2459" y2="407" class="loopLine"></line><line x1="2459" y1="407" x2="2459" y2="872" class="loopLine"></line><line x1="1373" y1="872" x2="2459" y2="872" class="loopLine"></line><line x1="1373" y1="407" x2="1373" y2="872" class="loopLine"></line><line x1="1373" y1="567" x2="2459" y2="567" class="loopLine" style="stroke-dasharray: 3, 3;"></line><line x1="1373" y1="722" x2="2459" y2="722" class="loopLine" style="stroke-dasharray: 3, 3;"></line><polygon points="1373,407 1423,407 1423,420 1414.6,427 1373,427" class="labelBox"></polygon><text x="1398" y="420" text-anchor="middle" dominant-baseline="middle" alignment-baseline="middle" class="labelText" style="font-size: 16px; font-weight: 400;">alt</text><text x="1941" y="425" text-anchor="middle" class="loopText" style="font-size: 16px; font-weight: 400;"><tspan x="1941">[Password (Argon2id)]</tspan></text><text x="1916" y="585" text-anchor="middle" class="loopText" style="font-size: 16px; font-weight: 400;">[Seed (Blake3)]</text><text x="1916" y="740" text-anchor="middle" class="loopText" style="font-size: 16px; font-weight: 400;">[NPY (Blake3)]</text></g><g><rect x="1649" y="982" fill="#EDF2AE" stroke="#666" width="10" height="160" rx="0" ry="0" class="activation0"></rect></g><g><rect x="2169" y="1036" fill="#EDF2AE" stroke="#666" width="10" height="52" rx="0" ry="0" class="activation0"></rect></g><g><rect x="2443" y="1252" fill="#EDF2AE" stroke="#666" width="10" height="1433" rx="0" ry="0" class="activation0"></rect></g><g><rect x="1649" y="1569" fill="#EDF2AE" stroke="#666" width="10" height="244" rx="0" ry="0" class="activation0"></rect></g><g><rect x="2169" y="1623" fill="#EDF2AE" stroke="#666" width="10" height="52" rx="0" ry="0" class="activation0"></rect></g><g><line x1="851.5" y1="1314" x2="2659" y2="1314" class="loopLine"></line><line x1="2659" y1="1314" x2="2659" y2="2015" class="loopLine"></line><line x1="851.5" y1="2015" x2="2659" y2="2015" class="loopLine"></line><line x1="851.5" y1="1314" x2="851.5" y2="2015" class="loopLine"></line><polygon points="851.5,1314 901.5,1314 901.5,1327 893.1,1334 851.5,1334" class="labelBox"></polygon><text x="877" y="1327" text-anchor="middle" dominant-baseline="middle" alignment-baseline="middle" class="labelText" style="font-size: 16px; font-weight: 400;">loop</text><text x="1780.25" y="1332" text-anchor="middle" class="loopText" style="font-size: 16px; font-weight: 400;"><tspan x="1780.25">[For each data chunk]</tspan></text></g><g><line x1="470" y1="2372" x2="1020" y2="2372" class="loopLine"></line><line x1="1020" y1="2372" x2="1020" y2="2574" class="loopLine"></line><line x1="470" y1="2574" x2="1020" y2="2574" class="loopLine"></line><line x1="470" y1="2372" x2="470" y2="2574" class="loopLine"></line><line x1="470" y1="2478" x2="1020" y2="2478" class="loopLine" style="stroke-dasharray: 3, 3;"></line><polygon points="470,2372 520,2372 520,2385 511.6,2392 470,2392" class="labelBox"></polygon><text x="495" y="2385" text-anchor="middle" dominant-baseline="middle" alignment-baseline="middle" class="labelText" style="font-size: 16px; font-weight: 400;">alt</text><text x="770" y="2390" text-anchor="middle" class="loopText" style="font-size: 16px; font-weight: 400;"><tspan x="770">[MAC Mismatch]</tspan></text><text x="745" y="2496" text-anchor="middle" class="loopText" style="font-size: 16px; font-weight: 400;">[MAC Match]</text></g><g><line x1="460" y1="2241" x2="1172.5" y2="2241" class="loopLine"></line><line x1="1172.5" y1="2241" x2="1172.5" y2="2685" class="loopLine"></line><line x1="460" y1="2685" x2="1172.5" y2="2685" class="loopLine"></line><line x1="460" y1="2241" x2="460" y2="2685" class="loopLine"></line><line x1="460" y1="2589" x2="1172.5" y2="2589" class="loopLine" style="stroke-dasharray: 3, 3;"></line><polygon points="460,2241 510,2241 510,2254 501.6,2261 460,2261" class="labelBox"></polygon><text x="485" y="2254" text-anchor="middle" dominant-baseline="middle" alignment-baseline="middle" class="labelText" style="font-size: 16px; font-weight: 400;">alt</text><text x="841.25" y="2259" text-anchor="middle" class="loopText" style="font-size: 16px; font-weight: 400;"><tspan x="841.25">[Decryption]</tspan></text><text x="816.25" y="2607" text-anchor="middle" class="loopText" style="font-size: 16px; font-weight: 400;">[Encryption]</text></g><line id="actor7" x1="75" y1="112" x2="75" y2="2759" class="200" stroke-width="0.5px" stroke="#999"></line><g class="actor-man actor-top" name="User"><line id="actor-man-torso7" x1="75" y1="57" x2="75" y2="77"></line><line id="actor-man-arms7" x1="57" y1="65" x2="93" y2="65"></line><line x1="57" y1="92" x2="75" y2="77"></line><line x1="75" y1="77" x2="91" y2="92"></line><circle cx="75" cy="42" r="15" width="150" height="65"></circle><text x="75" y="99.5" dominant-baseline="central" alignment-baseline="central" class="actor" style="text-anchor: middle; font-size: 16px; font-weight: 400;"><tspan x="75" dy="0">User</tspan></text></g><text x="277" y="112" text-anchor="middle" dominant-baseline="middle" alignment-baseline="middle" class="messageText" dy="1em" style="font-size: 16px; font-weight: 400;">Start Encrypt/Decrypt (file, key_source, params)</text><line x1="76" y1="151" x2="477" y2="151" class="messageLine0" stroke-width="2" stroke="none" marker-end="url(#arrowhead)" style="fill: none;"></line><text x="742" y="166" text-anchor="middle" dominant-baseline="middle" alignment-baseline="middle" class="messageText" dy="1em" style="font-size: 16px; font-weight: 400;">call encrypt_file(infile, outfile, ...) / decrypt_file(infile, outfile, ...)</text><line x1="482" y1="205" x2="1001" y2="205" class="messageLine0" stroke-width="2" stroke="none" marker-end="url(#arrowhead)" style="fill: none;"></line><text x="1827" y="220" text-anchor="middle" dominant-baseline="middle" alignment-baseline="middle" class="messageText" dy="1em" style="font-size: 16px; font-weight: 400;">Read plaintext file size (Encrypt) / Read Header (Decrypt)</text><line x1="1010" y1="259" x2="2644" y2="259" class="messageLine0" stroke-width="2" stroke="none" marker-end="url(#arrowhead)" style="fill: none;"></line><text x="1010" y="274" text-anchor="middle" dominant-baseline="middle" alignment-baseline="middle" class="messageText" dy="1em" style="font-size: 16px; font-weight: 400;">Generate Salt &amp; Nonce (Encrypt)</text><path d="M 1010,313 C 1070,303 1070,343 1010,333" class="messageLine0" stroke-width="2" stroke="none" marker-end="url(#arrowhead)" style="fill: none;"></path><text x="1197" y="358" text-anchor="middle" dominant-baseline="middle" alignment-baseline="middle" class="messageText" dy="1em" style="font-size: 16px; font-weight: 400;">Determine Key Source (Password/Seed/NPY)</text><line x1="1010" y1="397" x2="1384" y2="397" class="messageLine0" stroke-width="2" stroke="none" marker-end="url(#arrowhead)" style="fill: none;"></line><text x="1919" y="459" text-anchor="middle" dominant-baseline="middle" alignment-baseline="middle" class="messageText" dy="1em" style="font-size: 16px; font-weight: 400;">kdf_from_password(password, salt, ...)</text><line x1="1393" y1="498" x2="2444" y2="498" class="messageLine0" stroke-width="2" stroke="none" marker-end="url(#arrowhead)" style="fill: none;"></line><text x="1922" y="513" text-anchor="middle" dominant-baseline="middle" alignment-baseline="middle" class="messageText" dy="1em" style="font-size: 16px; font-weight: 400;">Derived Master Key (32 bytes)</text><line x1="2447" y1="552" x2="1396" y2="552" class="messageLine1" stroke-width="2" stroke="none" marker-end="url(#arrowhead)" style="stroke-dasharray: 3, 3; fill: none;"></line><text x="1919" y="614" text-anchor="middle" dominant-baseline="middle" alignment-baseline="middle" class="messageText" dy="1em" style="font-size: 16px; font-weight: 400;">kdf_from_seed(seed)</text><line x1="1393" y1="653" x2="2444" y2="653" class="messageLine0" stroke-width="2" stroke="none" marker-end="url(#arrowhead)" style="fill: none;"></line><text x="1922" y="668" text-anchor="middle" dominant-baseline="middle" alignment-baseline="middle" class="messageText" dy="1em" style="font-size: 16px; font-weight: 400;">Derived Master Key (32 bytes)</text><line x1="2447" y1="707" x2="1396" y2="707" class="messageLine1" stroke-width="2" stroke="none" marker-end="url(#arrowhead)" style="stroke-dasharray: 3, 3; fill: none;"></line><text x="1919" y="769" text-anchor="middle" dominant-baseline="middle" alignment-baseline="middle" class="messageText" dy="1em" style="font-size: 16px; font-weight: 400;">kdf_from_npy(key_npy_path)</text><line x1="1393" y1="808" x2="2444" y2="808" class="messageLine0" stroke-width="2" stroke="none" marker-end="url(#arrowhead)" style="fill: none;"></line><text x="1922" y="823" text-anchor="middle" dominant-baseline="middle" alignment-baseline="middle" class="messageText" dy="1em" style="font-size: 16px; font-weight: 400;">Derived Master Key (32 bytes)</text><line x1="2447" y1="862" x2="1396" y2="862" class="messageLine1" stroke-width="2" stroke="none" marker-end="url(#arrowhead)" style="stroke-dasharray: 3, 3; fill: none;"></line><text x="1198" y="887" text-anchor="middle" dominant-baseline="middle" alignment-baseline="middle" class="messageText" dy="1em" style="font-size: 16px; font-weight: 400;">Master Key</text><line x1="1383" y1="926" x2="1013" y2="926" class="messageLine1" stroke-width="2" stroke="none" marker-end="url(#arrowhead)" style="stroke-dasharray: 3, 3; fill: none;"></line><text x="1330" y="941" text-anchor="middle" dominant-baseline="middle" alignment-baseline="middle" class="messageText" dy="1em" style="font-size: 16px; font-weight: 400;">Initialize SQSEDLL(dll_path, gpu_idx)</text><line x1="1010" y1="980" x2="1650" y2="980" class="messageLine0" stroke-width="2" stroke="none" marker-end="url(#arrowhead)" style="fill: none;"></line><text x="1915" y="995" text-anchor="middle" dominant-baseline="middle" alignment-baseline="middle" class="messageText" dy="1em" style="font-size: 16px; font-weight: 400;">Load DLL &amp; Init GPU (initialize_gpu, sqse_load_kernels)</text><line x1="1659" y1="1034" x2="2170" y2="1034" class="messageLine0" stroke-width="2" stroke="none" marker-end="url(#arrowhead)" style="fill: none;"></line><text x="1916" y="1049" text-anchor="middle" dominant-baseline="middle" alignment-baseline="middle" class="messageText" dy="1em" style="font-size: 16px; font-weight: 400;">DLL Ready</text><line x1="2169" y1="1088" x2="1662" y2="1088" class="messageLine1" stroke-width="2" stroke="none" marker-end="url(#arrowhead)" style="stroke-dasharray: 3, 3; fill: none;"></line><text x="1331" y="1103" text-anchor="middle" dominant-baseline="middle" alignment-baseline="middle" class="messageText" dy="1em" style="font-size: 16px; font-weight: 400;">SQSEDLL Instance</text><line x1="1649" y1="1142" x2="1013" y2="1142" class="messageLine1" stroke-width="2" stroke="none" marker-end="url(#arrowhead)" style="stroke-dasharray: 3, 3; fill: none;"></line><text x="1827" y="1157" text-anchor="middle" dominant-baseline="middle" alignment-baseline="middle" class="messageText" dy="1em" style="font-size: 16px; font-weight: 400;">Write Header (MAGIC, VER, Flags, KDF params, K, Steps, Nonce, Salt) (Encrypt)</text><line x1="1010" y1="1196" x2="2644" y2="1196" class="messageLine0" stroke-width="2" stroke="none" marker-end="url(#arrowhead)" style="fill: none;"></line><text x="1727" y="1211" text-anchor="middle" dominant-baseline="middle" alignment-baseline="middle" class="messageText" dy="1em" style="font-size: 16px; font-weight: 400;">Init BLAKE3 MAC with Master Key</text><line x1="1010" y1="1250" x2="2444" y2="1250" class="messageLine0" stroke-width="2" stroke="none" marker-end="url(#arrowhead)" style="fill: none;"></line><text x="1725" y="1265" text-anchor="middle" dominant-baseline="middle" alignment-baseline="middle" class="messageText" dy="1em" style="font-size: 16px; font-weight: 400;">Update MAC with Header data</text><line x1="1010" y1="1304" x2="2440" y2="1304" class="messageLine0" stroke-width="2" stroke="none" marker-end="url(#arrowhead)" style="fill: none;"></line><text x="1827" y="1366" text-anchor="middle" dominant-baseline="middle" alignment-baseline="middle" class="messageText" dy="1em" style="font-size: 16px; font-weight: 400;">Read Plaintext Chunk (Encrypt) / Ciphertext Chunk (Decrypt)</text><line x1="1010" y1="1405" x2="2644" y2="1405" class="messageLine0" stroke-width="2" stroke="none" marker-end="url(#arrowhead)" style="fill: none;"></line><text x="1725" y="1420" text-anchor="middle" dominant-baseline="middle" alignment-baseline="middle" class="messageText" dy="1em" style="font-size: 16px; font-weight: 400;">expand_key_float32(Master Key, Nonce, Chunk Counter)</text><line x1="1010" y1="1459" x2="2440" y2="1459" class="messageLine0" stroke-width="2" stroke="none" marker-end="url(#arrowhead)" style="fill: none;"></line><text x="1728" y="1474" text-anchor="middle" dominant-baseline="middle" alignment-baseline="middle" class="messageText" dy="1em" style="font-size: 16px; font-weight: 400;">Chunk-specific Float32 Key Array</text><line x1="2443" y1="1513" x2="1013" y2="1513" class="messageLine1" stroke-width="2" stroke="none" marker-end="url(#arrowhead)" style="stroke-dasharray: 3, 3; fill: none;"></line><text x="1330" y="1528" text-anchor="middle" dominant-baseline="middle" alignment-baseline="middle" class="messageText" dy="1em" style="font-size: 16px; font-weight: 400;">keystream_bytes(chunk_size, K, Steps, Float32 Key Array)</text><line x1="1010" y1="1567" x2="1650" y2="1567" class="messageLine0" stroke-width="2" stroke="none" marker-end="url(#arrowhead)" style="fill: none;"></line><text x="1915" y="1582" text-anchor="middle" dominant-baseline="middle" alignment-baseline="middle" class="messageText" dy="1em" style="font-size: 16px; font-weight: 400;">execute_sqse_encrypt_float(zeros_input, Float32 Key Array, ...)</text><line x1="1659" y1="1621" x2="2170" y2="1621" class="messageLine0" stroke-width="2" stroke="none" marker-end="url(#arrowhead)" style="fill: none;"></line><text x="1916" y="1636" text-anchor="middle" dominant-baseline="middle" alignment-baseline="middle" class="messageText" dy="1em" style="font-size: 16px; font-weight: 400;">theta, pmask (Keystream components)</text><line x1="2169" y1="1675" x2="1662" y2="1675" class="messageLine1" stroke-width="2" stroke="none" marker-end="url(#arrowhead)" style="stroke-dasharray: 3, 3; fill: none;"></line><text x="1659" y="1690" text-anchor="middle" dominant-baseline="middle" alignment-baseline="middle" class="messageText" dy="1em" style="font-size: 16px; font-weight: 400;">Convert theta to byte Keystream</text><path d="M 1659,1729 C 1719,1719 1719,1759 1659,1749" class="messageLine0" stroke-width="2" stroke="none" marker-end="url(#arrowhead)" style="fill: none;"></path><text x="1331" y="1774" text-anchor="middle" dominant-baseline="middle" alignment-baseline="middle" class="messageText" dy="1em" style="font-size: 16px; font-weight: 400;">Byte Keystream</text><line x1="1649" y1="1813" x2="1013" y2="1813" class="messageLine1" stroke-width="2" stroke="none" marker-end="url(#arrowhead)" style="stroke-dasharray: 3, 3; fill: none;"></line><text x="1010" y="1828" text-anchor="middle" dominant-baseline="middle" alignment-baseline="middle" class="messageText" dy="1em" style="font-size: 16px; font-weight: 400;">XOR (Plaintext/Ciphertext) with Keystream</text><path d="M 1010,1867 C 1070,1857 1070,1897 1010,1887" class="messageLine0" stroke-width="2" stroke="none" marker-end="url(#arrowhead)" style="fill: none;"></path><text x="1827" y="1912" text-anchor="middle" dominant-baseline="middle" alignment-baseline="middle" class="messageText" dy="1em" style="font-size: 16px; font-weight: 400;">Write Ciphertext Chunk (Encrypt) / Plaintext Chunk (Decrypt)</text><line x1="1010" y1="1951" x2="2644" y2="1951" class="messageLine0" stroke-width="2" stroke="none" marker-end="url(#arrowhead)" style="fill: none;"></line><text x="1725" y="1966" text-anchor="middle" dominant-baseline="middle" alignment-baseline="middle" class="messageText" dy="1em" style="font-size: 16px; font-weight: 400;">Update BLAKE3 MAC with Ciphertext Chunk</text><line x1="1010" y1="2005" x2="2440" y2="2005" class="messageLine0" stroke-width="2" stroke="none" marker-end="url(#arrowhead)" style="fill: none;"></line><text x="1827" y="2030" text-anchor="middle" dominant-baseline="middle" alignment-baseline="middle" class="messageText" dy="1em" style="font-size: 16px; font-weight: 400;">Write Final BLAKE3 MAC (Encrypt)</text><line x1="1010" y1="2069" x2="2644" y2="2069" class="messageLine0" stroke-width="2" stroke="none" marker-end="url(#arrowhead)" style="fill: none;"></line><text x="1827" y="2084" text-anchor="middle" dominant-baseline="middle" alignment-baseline="middle" class="messageText" dy="1em" style="font-size: 16px; font-weight: 400;">Read Stored BLAKE3 MAC (Decrypt)</text><line x1="1010" y1="2123" x2="2644" y2="2123" class="messageLine0" stroke-width="2" stroke="none" marker-end="url(#arrowhead)" style="fill: none;"></line><text x="1725" y="2138" text-anchor="middle" dominant-baseline="middle" alignment-baseline="middle" class="messageText" dy="1em" style="font-size: 16px; font-weight: 400;">Finalize BLAKE3 MAC</text><line x1="1010" y1="2177" x2="2440" y2="2177" class="messageLine0" stroke-width="2" stroke="none" marker-end="url(#arrowhead)" style="fill: none;"></line><text x="1728" y="2192" text-anchor="middle" dominant-baseline="middle" alignment-baseline="middle" class="messageText" dy="1em" style="font-size: 16px; font-weight: 400;">Calculated MAC</text><line x1="2443" y1="2231" x2="1013" y2="2231" class="messageLine1" stroke-width="2" stroke="none" marker-end="url(#arrowhead)" style="stroke-dasharray: 3, 3; fill: none;"></line><text x="1010" y="2293" text-anchor="middle" dominant-baseline="middle" alignment-baseline="middle" class="messageText" dy="1em" style="font-size: 16px; font-weight: 400;">Compare Calculated MAC with Stored MAC</text><path d="M 1010,2332 C 1070,2322 1070,2362 1010,2352" class="messageLine0" stroke-width="2" stroke="none" marker-end="url(#arrowhead)" style="fill: none;"></path><text x="743" y="2424" text-anchor="middle" dominant-baseline="middle" alignment-baseline="middle" class="messageText" dy="1em" style="font-size: 16px; font-weight: 400;">Error: MAC Verification Failed (Tampered/Wrong Key)</text><line x1="1000" y1="2463" x2="485" y2="2463" class="messageLine1" stroke-width="2" stroke="none" marker-end="url(#crosshead)" style="stroke-dasharray: 3, 3; fill: none;"></line><text x="743" y="2525" text-anchor="middle" dominant-baseline="middle" alignment-baseline="middle" class="messageText" dy="1em" style="font-size: 16px; font-weight: 400;">Decryption Successful</text><line x1="1000" y1="2564" x2="485" y2="2564" class="messageLine1" stroke-width="2" stroke="none" marker-end="url(#arrowhead)" style="stroke-dasharray: 3, 3; fill: none;"></line><text x="743" y="2636" text-anchor="middle" dominant-baseline="middle" alignment-baseline="middle" class="messageText" dy="1em" style="font-size: 16px; font-weight: 400;">Encryption Successful</text><line x1="1000" y1="2675" x2="485" y2="2675" class="messageLine1" stroke-width="2" stroke="none" marker-end="url(#arrowhead)" style="stroke-dasharray: 3, 3; fill: none;"></line><text x="280" y="2700" text-anchor="middle" dominant-baseline="middle" alignment-baseline="middle" class="messageText" dy="1em" style="font-size: 16px; font-weight: 400;">Operation Result</text><line x1="480" y1="2739" x2="79" y2="2739" class="messageLine1" stroke-width="2" stroke="none" marker-end="url(#arrowhead)" style="stroke-dasharray: 3, 3; fill: none;"></line><g class="actor-man actor-bottom" name="User"><line id="actor-man-torso14" x1="75" y1="2784" x2="75" y2="2804"></line><line id="actor-man-arms14" x1="57" y1="2792" x2="93" y2="2792"></line><line x1="57" y1="2819" x2="75" y2="2804"></line><line x1="75" y1="2804" x2="91" y2="2819"></line><circle cx="75" cy="2769" r="15" width="150" height="65"></circle><text x="75" y="2826.5" dominant-baseline="central" alignment-baseline="central" class="actor" style="text-anchor: middle; font-size: 16px; font-weight: 400;"><tspan x="75" dy="0">User</tspan></text></g></svg>